<?xml version="1.0" encoding="utf-8" standalone="no"?>
<!DOCTYPE svg PUBLIC "-//W3C//DTD SVG 1.1//EN"
  "http://www.w3.org/Graphics/SVG/1.1/DTD/svg11.dtd">
<svg xmlns:xlink="http://www.w3.org/1999/xlink" width="360pt" height="360pt" viewBox="0 0 360 360" xmlns="http://www.w3.org/2000/svg" version="1.1">
 <metadata>
  <rdf:RDF xmlns:dc="http://purl.org/dc/elements/1.1/" xmlns:cc="http://creativecommons.org/ns#" xmlns:rdf="http://www.w3.org/1999/02/22-rdf-syntax-ns#">
   <cc:Work>
    <dc:type rdf:resource="http://purl.org/dc/dcmitype/StillImage"/>
    <dc:date>2022-05-31T22:47:45.633379</dc:date>
    <dc:format>image/svg+xml</dc:format>
    <dc:creator>
     <cc:Agent>
      <dc:title>Matplotlib v3.5.1, https://matplotlib.org/</dc:title>
     </cc:Agent>
    </dc:creator>
   </cc:Work>
  </rdf:RDF>
 </metadata>
 <defs>
  <style type="text/css">*{stroke-linejoin: round; stroke-linecap: butt}</style>
 </defs>
 <g id="figure_1">
  <g id="patch_1">
   <path d="M 0 360 
L 360 360 
L 360 0 
L 0 0 
z
" style="fill: #ffffff"/>
  </g>
  <g id="axes_1">
   <g id="patch_2">
    <path d="M 45 320.4 
L 324 320.4 
L 324 43.2 
L 45 43.2 
z
" style="fill: #ffffff"/>
   </g>
   <g id="Quiver_1">
    <path d="M 57.505363 307.270635 
L 70.386585 302.976894 
L 69.327854 301.565253 
L 75.327328 301.918164 
L 70.739495 305.800176 
L 70.739495 304.035625 
L 57.858273 308.329365 
L 57.505363 307.270635 
" clip-path="url(#p4721cd210e)" style="fill: #005f73"/>
    <path d="M 82.830839 307.284923 
L 95.364378 302.062615 
L 94.205455 300.732 
L 100.214685 300.646154 
L 95.922378 304.852615 
L 95.793608 303.092769 
L 83.26007 308.315077 
L 82.830839 307.284923 
" clip-path="url(#p4721cd210e)" style="fill: #005f73"/>
    <path d="M 108.138102 307.31222 
L 120.00741 300.718161 
L 118.706664 299.52581 
L 124.668416 298.767041 
L 120.874574 303.428048 
L 120.549387 301.69372 
L 108.68008 308.28778 
L 108.138102 307.31222 
" clip-path="url(#p4721cd210e)" style="fill: #005f73"/>
    <path d="M 133.415504 307.371333 
L 143.846413 298.678909 
L 142.346077 297.750129 
L 148.061643 295.89257 
L 145.20386 301.179469 
L 144.560859 299.536244 
L 134.12995 308.228667 
L 133.415504 307.371333 
" clip-path="url(#p4721cd210e)" style="fill: #005f73"/>
    <path d="M 158.657883 307.512911 
L 165.643706 295.869872 
L 163.921174 295.487088 
L 168.705985 291.850632 
L 167.749023 297.783797 
L 166.600668 296.44405 
L 159.614845 308.087089 
L 158.657883 307.512911 
" clip-path="url(#p4721cd210e)" style="fill: #005f73"/>
    <path d="M 183.942 307.8 
L 183.942 294.222 
L 182.268 294.78 
L 184.5 289.2 
L 186.732 294.78 
L 185.058 294.222 
L 185.058 307.8 
L 183.942 307.8 
" clip-path="url(#p4721cd210e)" style="fill: #005f73"/>
    <path d="M 209.385155 308.087089 
L 202.399332 296.44405 
L 201.250977 297.783797 
L 200.294015 291.850632 
L 205.078826 295.487088 
L 203.356294 295.869872 
L 210.342117 307.512911 
L 209.385155 308.087089 
" clip-path="url(#p4721cd210e)" style="fill: #005f73"/>
    <path d="M 234.87005 308.228667 
L 224.439141 299.536244 
L 223.79614 301.179469 
L 220.938357 295.89257 
L 226.653923 297.750129 
L 225.153587 298.678909 
L 235.584496 307.371333 
L 234.87005 308.228667 
" clip-path="url(#p4721cd210e)" style="fill: #005f73"/>
    <path d="M 260.31992 308.28778 
L 248.450613 301.69372 
L 248.125426 303.428048 
L 244.331584 298.767041 
L 250.293336 299.52581 
L 248.99259 300.718161 
L 260.861898 307.31222 
L 260.31992 308.28778 
" clip-path="url(#p4721cd210e)" style="fill: #005f73"/>
    <path d="M 285.73993 308.315077 
L 273.206392 303.092769 
L 273.077622 304.852615 
L 268.785315 300.646154 
L 274.794545 300.732 
L 273.635622 302.062615 
L 286.169161 307.284923 
L 285.73993 308.315077 
" clip-path="url(#p4721cd210e)" style="fill: #005f73"/>
    <path d="M 311.141727 308.329365 
L 298.260505 304.035625 
L 298.260505 305.800176 
L 293.672672 301.918164 
L 299.672146 301.565253 
L 298.613415 302.976894 
L 311.494637 307.270635 
L 311.141727 308.329365 
" clip-path="url(#p4721cd210e)" style="fill: #005f73"/>
    <path d="M 57.505363 282.070635 
L 70.386585 277.776894 
L 69.327854 276.365253 
L 75.327328 276.718164 
L 70.739495 280.600176 
L 70.739495 278.835625 
L 57.858273 283.129365 
L 57.505363 282.070635 
" clip-path="url(#p4721cd210e)" style="fill: #005f73"/>
    <path d="M 82.830839 282.084923 
L 95.364378 276.862615 
L 94.205455 275.532 
L 100.214685 275.446154 
L 95.922378 279.652615 
L 95.793608 277.892769 
L 83.26007 283.115077 
L 82.830839 282.084923 
" clip-path="url(#p4721cd210e)" style="fill: #005f73"/>
    <path d="M 108.138102 282.11222 
L 120.00741 275.518161 
L 118.706664 274.32581 
L 124.668416 273.567041 
L 120.874574 278.228048 
L 120.549387 276.49372 
L 108.68008 283.08778 
L 108.138102 282.11222 
" clip-path="url(#p4721cd210e)" style="fill: #005f73"/>
    <path d="M 133.415504 282.171333 
L 143.846413 273.478909 
L 142.346077 272.550129 
L 148.061643 270.69257 
L 145.20386 275.979469 
L 144.560859 274.336244 
L 134.12995 283.028667 
L 133.415504 282.171333 
" clip-path="url(#p4721cd210e)" style="fill: #005f73"/>
    <path d="M 158.657883 282.312911 
L 165.643706 270.669872 
L 163.921174 270.287088 
L 168.705985 266.650632 
L 167.749023 272.583797 
L 166.600668 271.24405 
L 159.614845 282.887089 
L 158.657883 282.312911 
" clip-path="url(#p4721cd210e)" style="fill: #005f73"/>
    <path d="M 183.942 282.6 
L 183.942 269.022 
L 182.268 269.58 
L 184.5 264 
L 186.732 269.58 
L 185.058 269.022 
L 185.058 282.6 
L 183.942 282.6 
" clip-path="url(#p4721cd210e)" style="fill: #005f73"/>
    <path d="M 209.385155 282.887089 
L 202.399332 271.24405 
L 201.250977 272.583797 
L 200.294015 266.650632 
L 205.078826 270.287088 
L 203.356294 270.669872 
L 210.342117 282.312911 
L 209.385155 282.887089 
" clip-path="url(#p4721cd210e)" style="fill: #005f73"/>
    <path d="M 234.87005 283.028667 
L 224.439141 274.336244 
L 223.79614 275.979469 
L 220.938357 270.69257 
L 226.653923 272.550129 
L 225.153587 273.478909 
L 235.584496 282.171333 
L 234.87005 283.028667 
" clip-path="url(#p4721cd210e)" style="fill: #005f73"/>
    <path d="M 260.31992 283.08778 
L 248.450613 276.49372 
L 248.125426 278.228048 
L 244.331584 273.567041 
L 250.293336 274.32581 
L 248.99259 275.518161 
L 260.861898 282.11222 
L 260.31992 283.08778 
" clip-path="url(#p4721cd210e)" style="fill: #005f73"/>
    <path d="M 285.73993 283.115077 
L 273.206392 277.892769 
L 273.077622 279.652615 
L 268.785315 275.446154 
L 274.794545 275.532 
L 273.635622 276.862615 
L 286.169161 282.084923 
L 285.73993 283.115077 
" clip-path="url(#p4721cd210e)" style="fill: #005f73"/>
    <path d="M 311.141727 283.129365 
L 298.260505 278.835625 
L 298.260505 280.600176 
L 293.672672 276.718164 
L 299.672146 276.365253 
L 298.613415 277.776894 
L 311.494637 282.070635 
L 311.141727 283.129365 
" clip-path="url(#p4721cd210e)" style="fill: #005f73"/>
    <path d="M 57.505363 256.870635 
L 70.386585 252.576894 
L 69.327854 251.165253 
L 75.327328 251.518164 
L 70.739495 255.400176 
L 70.739495 253.635625 
L 57.858273 257.929365 
L 57.505363 256.870635 
" clip-path="url(#p4721cd210e)" style="fill: #005f73"/>
    <path d="M 82.830839 256.884923 
L 95.364378 251.662615 
L 94.205455 250.332 
L 100.214685 250.246154 
L 95.922378 254.452615 
L 95.793608 252.692769 
L 83.26007 257.915077 
L 82.830839 256.884923 
" clip-path="url(#p4721cd210e)" style="fill: #005f73"/>
    <path d="M 108.138102 256.91222 
L 120.00741 250.318161 
L 118.706664 249.12581 
L 124.668416 248.367041 
L 120.874574 253.028048 
L 120.549387 251.29372 
L 108.68008 257.88778 
L 108.138102 256.91222 
" clip-path="url(#p4721cd210e)" style="fill: #005f73"/>
    <path d="M 133.415504 256.971333 
L 143.846413 248.278909 
L 142.346077 247.350129 
L 148.061643 245.49257 
L 145.20386 250.779469 
L 144.560859 249.136244 
L 134.12995 257.828667 
L 133.415504 256.971333 
" clip-path="url(#p4721cd210e)" style="fill: #005f73"/>
    <path d="M 158.657883 257.112911 
L 165.643706 245.469872 
L 163.921174 245.087088 
L 168.705985 241.450632 
L 167.749023 247.383797 
L 166.600668 246.04405 
L 159.614845 257.687089 
L 158.657883 257.112911 
" clip-path="url(#p4721cd210e)" style="fill: #005f73"/>
    <path d="M 183.942 257.4 
L 183.942 243.822 
L 182.268 244.38 
L 184.5 238.8 
L 186.732 244.38 
L 185.058 243.822 
L 185.058 257.4 
L 183.942 257.4 
" clip-path="url(#p4721cd210e)" style="fill: #005f73"/>
    <path d="M 209.385155 257.687089 
L 202.399332 246.04405 
L 201.250977 247.383797 
L 200.294015 241.450632 
L 205.078826 245.087088 
L 203.356294 245.469872 
L 210.342117 257.112911 
L 209.385155 257.687089 
" clip-path="url(#p4721cd210e)" style="fill: #005f73"/>
    <path d="M 234.87005 257.828667 
L 224.439141 249.136244 
L 223.79614 250.779469 
L 220.938357 245.49257 
L 226.653923 247.350129 
L 225.153587 248.278909 
L 235.584496 256.971333 
L 234.87005 257.828667 
" clip-path="url(#p4721cd210e)" style="fill: #005f73"/>
    <path d="M 260.31992 257.88778 
L 248.450613 251.29372 
L 248.125426 253.028048 
L 244.331584 248.367041 
L 250.293336 249.12581 
L 248.99259 250.318161 
L 260.861898 256.91222 
L 260.31992 257.88778 
" clip-path="url(#p4721cd210e)" style="fill: #005f73"/>
    <path d="M 285.73993 257.915077 
L 273.206392 252.692769 
L 273.077622 254.452615 
L 268.785315 250.246154 
L 274.794545 250.332 
L 273.635622 251.662615 
L 286.169161 256.884923 
L 285.73993 257.915077 
" clip-path="url(#p4721cd210e)" style="fill: #005f73"/>
    <path d="M 311.141727 257.929365 
L 298.260505 253.635625 
L 298.260505 255.400176 
L 293.672672 251.518164 
L 299.672146 251.165253 
L 298.613415 252.576894 
L 311.494637 256.870635 
L 311.141727 257.929365 
" clip-path="url(#p4721cd210e)" style="fill: #005f73"/>
    <path d="M 57.505363 231.670635 
L 70.386585 227.376894 
L 69.327854 225.965253 
L 75.327328 226.318164 
L 70.739495 230.200176 
L 70.739495 228.435625 
L 57.858273 232.729365 
L 57.505363 231.670635 
" clip-path="url(#p4721cd210e)" style="fill: #005f73"/>
    <path d="M 82.830839 231.684923 
L 95.364378 226.462615 
L 94.205455 225.132 
L 100.214685 225.046154 
L 95.922378 229.252615 
L 95.793608 227.492769 
L 83.26007 232.715077 
L 82.830839 231.684923 
" clip-path="url(#p4721cd210e)" style="fill: #005f73"/>
    <path d="M 108.138102 231.71222 
L 120.00741 225.118161 
L 118.706664 223.92581 
L 124.668416 223.167041 
L 120.874574 227.828048 
L 120.549387 226.09372 
L 108.68008 232.68778 
L 108.138102 231.71222 
" clip-path="url(#p4721cd210e)" style="fill: #005f73"/>
    <path d="M 133.415504 231.771333 
L 143.846413 223.078909 
L 142.346077 222.150129 
L 148.061643 220.29257 
L 145.20386 225.579469 
L 144.560859 223.936244 
L 134.12995 232.628667 
L 133.415504 231.771333 
" clip-path="url(#p4721cd210e)" style="fill: #005f73"/>
    <path d="M 158.657883 231.912911 
L 165.643706 220.269872 
L 163.921174 219.887088 
L 168.705985 216.250632 
L 167.749023 222.183797 
L 166.600668 220.84405 
L 159.614845 232.487089 
L 158.657883 231.912911 
" clip-path="url(#p4721cd210e)" style="fill: #005f73"/>
    <path d="M 183.942 232.2 
L 183.942 218.622 
L 182.268 219.18 
L 184.5 213.6 
L 186.732 219.18 
L 185.058 218.622 
L 185.058 232.2 
L 183.942 232.2 
" clip-path="url(#p4721cd210e)" style="fill: #005f73"/>
    <path d="M 209.385155 232.487089 
L 202.399332 220.84405 
L 201.250977 222.183797 
L 200.294015 216.250632 
L 205.078826 219.887088 
L 203.356294 220.269872 
L 210.342117 231.912911 
L 209.385155 232.487089 
" clip-path="url(#p4721cd210e)" style="fill: #005f73"/>
    <path d="M 234.87005 232.628667 
L 224.439141 223.936244 
L 223.79614 225.579469 
L 220.938357 220.29257 
L 226.653923 222.150129 
L 225.153587 223.078909 
L 235.584496 231.771333 
L 234.87005 232.628667 
" clip-path="url(#p4721cd210e)" style="fill: #005f73"/>
    <path d="M 260.31992 232.68778 
L 248.450613 226.09372 
L 248.125426 227.828048 
L 244.331584 223.167041 
L 250.293336 223.92581 
L 248.99259 225.118161 
L 260.861898 231.71222 
L 260.31992 232.68778 
" clip-path="url(#p4721cd210e)" style="fill: #005f73"/>
    <path d="M 285.73993 232.715077 
L 273.206392 227.492769 
L 273.077622 229.252615 
L 268.785315 225.046154 
L 274.794545 225.132 
L 273.635622 226.462615 
L 286.169161 231.684923 
L 285.73993 232.715077 
" clip-path="url(#p4721cd210e)" style="fill: #005f73"/>
    <path d="M 311.141727 232.729365 
L 298.260505 228.435625 
L 298.260505 230.200176 
L 293.672672 226.318164 
L 299.672146 225.965253 
L 298.613415 227.376894 
L 311.494637 231.670635 
L 311.141727 232.729365 
" clip-path="url(#p4721cd210e)" style="fill: #005f73"/>
    <path d="M 57.505363 206.470635 
L 70.386585 202.176894 
L 69.327854 200.765253 
L 75.327328 201.118164 
L 70.739495 205.000176 
L 70.739495 203.235625 
L 57.858273 207.529365 
L 57.505363 206.470635 
" clip-path="url(#p4721cd210e)" style="fill: #005f73"/>
    <path d="M 82.830839 206.484923 
L 95.364378 201.262615 
L 94.205455 199.932 
L 100.214685 199.846154 
L 95.922378 204.052615 
L 95.793608 202.292769 
L 83.26007 207.515077 
L 82.830839 206.484923 
" clip-path="url(#p4721cd210e)" style="fill: #005f73"/>
    <path d="M 108.138102 206.51222 
L 120.00741 199.918161 
L 118.706664 198.72581 
L 124.668416 197.967041 
L 120.874574 202.628048 
L 120.549387 200.89372 
L 108.68008 207.48778 
L 108.138102 206.51222 
" clip-path="url(#p4721cd210e)" style="fill: #005f73"/>
    <path d="M 133.415504 206.571333 
L 143.846413 197.878909 
L 142.346077 196.950129 
L 148.061643 195.09257 
L 145.20386 200.379469 
L 144.560859 198.736244 
L 134.12995 207.428667 
L 133.415504 206.571333 
" clip-path="url(#p4721cd210e)" style="fill: #005f73"/>
    <path d="M 158.657883 206.712911 
L 165.643706 195.069872 
L 163.921174 194.687088 
L 168.705985 191.050632 
L 167.749023 196.983797 
L 166.600668 195.64405 
L 159.614845 207.287089 
L 158.657883 206.712911 
" clip-path="url(#p4721cd210e)" style="fill: #005f73"/>
    <path d="M 183.942 207 
L 183.942 193.422 
L 182.268 193.98 
L 184.5 188.4 
L 186.732 193.98 
L 185.058 193.422 
L 185.058 207 
L 183.942 207 
" clip-path="url(#p4721cd210e)" style="fill: #005f73"/>
    <path d="M 209.385155 207.287089 
L 202.399332 195.64405 
L 201.250977 196.983797 
L 200.294015 191.050632 
L 205.078826 194.687088 
L 203.356294 195.069872 
L 210.342117 206.712911 
L 209.385155 207.287089 
" clip-path="url(#p4721cd210e)" style="fill: #005f73"/>
    <path d="M 234.87005 207.428667 
L 224.439141 198.736244 
L 223.79614 200.379469 
L 220.938357 195.09257 
L 226.653923 196.950129 
L 225.153587 197.878909 
L 235.584496 206.571333 
L 234.87005 207.428667 
" clip-path="url(#p4721cd210e)" style="fill: #005f73"/>
    <path d="M 260.31992 207.48778 
L 248.450613 200.89372 
L 248.125426 202.628048 
L 244.331584 197.967041 
L 250.293336 198.72581 
L 248.99259 199.918161 
L 260.861898 206.51222 
L 260.31992 207.48778 
" clip-path="url(#p4721cd210e)" style="fill: #005f73"/>
    <path d="M 285.73993 207.515077 
L 273.206392 202.292769 
L 273.077622 204.052615 
L 268.785315 199.846154 
L 274.794545 199.932 
L 273.635622 201.262615 
L 286.169161 206.484923 
L 285.73993 207.515077 
" clip-path="url(#p4721cd210e)" style="fill: #005f73"/>
    <path d="M 311.141727 207.529365 
L 298.260505 203.235625 
L 298.260505 205.000176 
L 293.672672 201.118164 
L 299.672146 200.765253 
L 298.613415 202.176894 
L 311.494637 206.470635 
L 311.141727 207.529365 
" clip-path="url(#p4721cd210e)" style="fill: #005f73"/>
    <path d="M 57.505363 181.270635 
L 70.386585 176.976894 
L 69.327854 175.565253 
L 75.327328 175.918164 
L 70.739495 179.800176 
L 70.739495 178.035625 
L 57.858273 182.329365 
L 57.505363 181.270635 
" clip-path="url(#p4721cd210e)" style="fill: #005f73"/>
    <path d="M 82.830839 181.284923 
L 95.364378 176.062615 
L 94.205455 174.732 
L 100.214685 174.646154 
L 95.922378 178.852615 
L 95.793608 177.092769 
L 83.26007 182.315077 
L 82.830839 181.284923 
" clip-path="url(#p4721cd210e)" style="fill: #005f73"/>
    <path d="M 108.138102 181.31222 
L 120.00741 174.718161 
L 118.706664 173.52581 
L 124.668416 172.767041 
L 120.874574 177.428048 
L 120.549387 175.69372 
L 108.68008 182.28778 
L 108.138102 181.31222 
" clip-path="url(#p4721cd210e)" style="fill: #005f73"/>
    <path d="M 133.415504 181.371333 
L 143.846413 172.678909 
L 142.346077 171.750129 
L 148.061643 169.89257 
L 145.20386 175.179469 
L 144.560859 173.536244 
L 134.12995 182.228667 
L 133.415504 181.371333 
" clip-path="url(#p4721cd210e)" style="fill: #005f73"/>
    <path d="M 158.657883 181.512911 
L 165.643706 169.869872 
L 163.921174 169.487088 
L 168.705985 165.850632 
L 167.749023 171.783797 
L 166.600668 170.44405 
L 159.614845 182.087089 
L 158.657883 181.512911 
" clip-path="url(#p4721cd210e)" style="fill: #005f73"/>
    <path d="M 183.942 181.8 
L 183.942 168.222 
L 182.268 168.78 
L 184.5 163.2 
L 186.732 168.78 
L 185.058 168.222 
L 185.058 181.8 
L 183.942 181.8 
" clip-path="url(#p4721cd210e)" style="fill: #005f73"/>
    <path d="M 209.385155 182.087089 
L 202.399332 170.44405 
L 201.250977 171.783797 
L 200.294015 165.850632 
L 205.078826 169.487088 
L 203.356294 169.869872 
L 210.342117 181.512911 
L 209.385155 182.087089 
" clip-path="url(#p4721cd210e)" style="fill: #005f73"/>
    <path d="M 234.87005 182.228667 
L 224.439141 173.536244 
L 223.79614 175.179469 
L 220.938357 169.89257 
L 226.653923 171.750129 
L 225.153587 172.678909 
L 235.584496 181.371333 
L 234.87005 182.228667 
" clip-path="url(#p4721cd210e)" style="fill: #005f73"/>
    <path d="M 260.31992 182.28778 
L 248.450613 175.69372 
L 248.125426 177.428048 
L 244.331584 172.767041 
L 250.293336 173.52581 
L 248.99259 174.718161 
L 260.861898 181.31222 
L 260.31992 182.28778 
" clip-path="url(#p4721cd210e)" style="fill: #005f73"/>
    <path d="M 285.73993 182.315077 
L 273.206392 177.092769 
L 273.077622 178.852615 
L 268.785315 174.646154 
L 274.794545 174.732 
L 273.635622 176.062615 
L 286.169161 181.284923 
L 285.73993 182.315077 
" clip-path="url(#p4721cd210e)" style="fill: #005f73"/>
    <path d="M 311.141727 182.329365 
L 298.260505 178.035625 
L 298.260505 179.800176 
L 293.672672 175.918164 
L 299.672146 175.565253 
L 298.613415 176.976894 
L 311.494637 181.270635 
L 311.141727 182.329365 
" clip-path="url(#p4721cd210e)" style="fill: #005f73"/>
    <path d="M 57.505363 156.070635 
L 70.386585 151.776894 
L 69.327854 150.365253 
L 75.327328 150.718164 
L 70.739495 154.600176 
L 70.739495 152.835625 
L 57.858273 157.129365 
L 57.505363 156.070635 
" clip-path="url(#p4721cd210e)" style="fill: #005f73"/>
    <path d="M 82.830839 156.084923 
L 95.364378 150.862615 
L 94.205455 149.532 
L 100.214685 149.446154 
L 95.922378 153.652615 
L 95.793608 151.892769 
L 83.26007 157.115077 
L 82.830839 156.084923 
" clip-path="url(#p4721cd210e)" style="fill: #005f73"/>
    <path d="M 108.138102 156.11222 
L 120.00741 149.518161 
L 118.706664 148.32581 
L 124.668416 147.567041 
L 120.874574 152.228048 
L 120.549387 150.49372 
L 108.68008 157.08778 
L 108.138102 156.11222 
" clip-path="url(#p4721cd210e)" style="fill: #005f73"/>
    <path d="M 133.415504 156.171333 
L 143.846413 147.478909 
L 142.346077 146.550129 
L 148.061643 144.69257 
L 145.20386 149.979469 
L 144.560859 148.336244 
L 134.12995 157.028667 
L 133.415504 156.171333 
" clip-path="url(#p4721cd210e)" style="fill: #005f73"/>
    <path d="M 158.657883 156.312911 
L 165.643706 144.669872 
L 163.921174 144.287088 
L 168.705985 140.650632 
L 167.749023 146.583797 
L 166.600668 145.24405 
L 159.614845 156.887089 
L 158.657883 156.312911 
" clip-path="url(#p4721cd210e)" style="fill: #005f73"/>
    <path d="M 183.942 156.6 
L 183.942 143.022 
L 182.268 143.58 
L 184.5 138 
L 186.732 143.58 
L 185.058 143.022 
L 185.058 156.6 
L 183.942 156.6 
" clip-path="url(#p4721cd210e)" style="fill: #005f73"/>
    <path d="M 209.385155 156.887089 
L 202.399332 145.24405 
L 201.250977 146.583797 
L 200.294015 140.650632 
L 205.078826 144.287088 
L 203.356294 144.669872 
L 210.342117 156.312911 
L 209.385155 156.887089 
" clip-path="url(#p4721cd210e)" style="fill: #005f73"/>
    <path d="M 234.87005 157.028667 
L 224.439141 148.336244 
L 223.79614 149.979469 
L 220.938357 144.69257 
L 226.653923 146.550129 
L 225.153587 147.478909 
L 235.584496 156.171333 
L 234.87005 157.028667 
" clip-path="url(#p4721cd210e)" style="fill: #005f73"/>
    <path d="M 260.31992 157.08778 
L 248.450613 150.49372 
L 248.125426 152.228048 
L 244.331584 147.567041 
L 250.293336 148.32581 
L 248.99259 149.518161 
L 260.861898 156.11222 
L 260.31992 157.08778 
" clip-path="url(#p4721cd210e)" style="fill: #005f73"/>
    <path d="M 285.73993 157.115077 
L 273.206392 151.892769 
L 273.077622 153.652615 
L 268.785315 149.446154 
L 274.794545 149.532 
L 273.635622 150.862615 
L 286.169161 156.084923 
L 285.73993 157.115077 
" clip-path="url(#p4721cd210e)" style="fill: #005f73"/>
    <path d="M 311.141727 157.129365 
L 298.260505 152.835625 
L 298.260505 154.600176 
L 293.672672 150.718164 
L 299.672146 150.365253 
L 298.613415 151.776894 
L 311.494637 156.070635 
L 311.141727 157.129365 
" clip-path="url(#p4721cd210e)" style="fill: #005f73"/>
    <path d="M 57.505363 130.870635 
L 70.386585 126.576894 
L 69.327854 125.165253 
L 75.327328 125.518164 
L 70.739495 129.400176 
L 70.739495 127.635625 
L 57.858273 131.929365 
L 57.505363 130.870635 
" clip-path="url(#p4721cd210e)" style="fill: #005f73"/>
    <path d="M 82.830839 130.884923 
L 95.364378 125.662615 
L 94.205455 124.332 
L 100.214685 124.246154 
L 95.922378 128.452615 
L 95.793608 126.692769 
L 83.26007 131.915077 
L 82.830839 130.884923 
" clip-path="url(#p4721cd210e)" style="fill: #005f73"/>
    <path d="M 108.138102 130.91222 
L 120.00741 124.318161 
L 118.706664 123.12581 
L 124.668416 122.367041 
L 120.874574 127.028048 
L 120.549387 125.29372 
L 108.68008 131.88778 
L 108.138102 130.91222 
" clip-path="url(#p4721cd210e)" style="fill: #005f73"/>
    <path d="M 133.415504 130.971333 
L 143.846413 122.278909 
L 142.346077 121.350129 
L 148.061643 119.49257 
L 145.20386 124.779469 
L 144.560859 123.136244 
L 134.12995 131.828667 
L 133.415504 130.971333 
" clip-path="url(#p4721cd210e)" style="fill: #005f73"/>
    <path d="M 158.657883 131.112911 
L 165.643706 119.469872 
L 163.921174 119.087088 
L 168.705985 115.450632 
L 167.749023 121.383797 
L 166.600668 120.04405 
L 159.614845 131.687089 
L 158.657883 131.112911 
" clip-path="url(#p4721cd210e)" style="fill: #005f73"/>
    <path d="M 183.942 131.4 
L 183.942 117.822 
L 182.268 118.38 
L 184.5 112.8 
L 186.732 118.38 
L 185.058 117.822 
L 185.058 131.4 
L 183.942 131.4 
" clip-path="url(#p4721cd210e)" style="fill: #005f73"/>
    <path d="M 209.385155 131.687089 
L 202.399332 120.04405 
L 201.250977 121.383797 
L 200.294015 115.450632 
L 205.078826 119.087088 
L 203.356294 119.469872 
L 210.342117 131.112911 
L 209.385155 131.687089 
" clip-path="url(#p4721cd210e)" style="fill: #005f73"/>
    <path d="M 234.87005 131.828667 
L 224.439141 123.136244 
L 223.79614 124.779469 
L 220.938357 119.49257 
L 226.653923 121.350129 
L 225.153587 122.278909 
L 235.584496 130.971333 
L 234.87005 131.828667 
" clip-path="url(#p4721cd210e)" style="fill: #005f73"/>
    <path d="M 260.31992 131.88778 
L 248.450613 125.29372 
L 248.125426 127.028048 
L 244.331584 122.367041 
L 250.293336 123.12581 
L 248.99259 124.318161 
L 260.861898 130.91222 
L 260.31992 131.88778 
" clip-path="url(#p4721cd210e)" style="fill: #005f73"/>
    <path d="M 285.73993 131.915077 
L 273.206392 126.692769 
L 273.077622 128.452615 
L 268.785315 124.246154 
L 274.794545 124.332 
L 273.635622 125.662615 
L 286.169161 130.884923 
L 285.73993 131.915077 
" clip-path="url(#p4721cd210e)" style="fill: #005f73"/>
    <path d="M 311.141727 131.929365 
L 298.260505 127.635625 
L 298.260505 129.400176 
L 293.672672 125.518164 
L 299.672146 125.165253 
L 298.613415 126.576894 
L 311.494637 130.870635 
L 311.141727 131.929365 
" clip-path="url(#p4721cd210e)" style="fill: #005f73"/>
    <path d="M 57.505363 105.670635 
L 70.386585 101.376894 
L 69.327854 99.965253 
L 75.327328 100.318164 
L 70.739495 104.200176 
L 70.739495 102.435625 
L 57.858273 106.729365 
L 57.505363 105.670635 
" clip-path="url(#p4721cd210e)" style="fill: #005f73"/>
    <path d="M 82.830839 105.684923 
L 95.364378 100.462615 
L 94.205455 99.132 
L 100.214685 99.046154 
L 95.922378 103.252615 
L 95.793608 101.492769 
L 83.26007 106.715077 
L 82.830839 105.684923 
" clip-path="url(#p4721cd210e)" style="fill: #005f73"/>
    <path d="M 108.138102 105.71222 
L 120.00741 99.118161 
L 118.706664 97.92581 
L 124.668416 97.167041 
L 120.874574 101.828048 
L 120.549387 100.09372 
L 108.68008 106.68778 
L 108.138102 105.71222 
" clip-path="url(#p4721cd210e)" style="fill: #005f73"/>
    <path d="M 133.415504 105.771333 
L 143.846413 97.078909 
L 142.346077 96.150129 
L 148.061643 94.29257 
L 145.20386 99.579469 
L 144.560859 97.936244 
L 134.12995 106.628667 
L 133.415504 105.771333 
" clip-path="url(#p4721cd210e)" style="fill: #005f73"/>
    <path d="M 158.657883 105.912911 
L 165.643706 94.269872 
L 163.921174 93.887088 
L 168.705985 90.250632 
L 167.749023 96.183797 
L 166.600668 94.84405 
L 159.614845 106.487089 
L 158.657883 105.912911 
" clip-path="url(#p4721cd210e)" style="fill: #005f73"/>
    <path d="M 183.942 106.2 
L 183.942 92.622 
L 182.268 93.18 
L 184.5 87.6 
L 186.732 93.18 
L 185.058 92.622 
L 185.058 106.2 
L 183.942 106.2 
" clip-path="url(#p4721cd210e)" style="fill: #005f73"/>
    <path d="M 209.385155 106.487089 
L 202.399332 94.84405 
L 201.250977 96.183797 
L 200.294015 90.250632 
L 205.078826 93.887088 
L 203.356294 94.269872 
L 210.342117 105.912911 
L 209.385155 106.487089 
" clip-path="url(#p4721cd210e)" style="fill: #005f73"/>
    <path d="M 234.87005 106.628667 
L 224.439141 97.936244 
L 223.79614 99.579469 
L 220.938357 94.29257 
L 226.653923 96.150129 
L 225.153587 97.078909 
L 235.584496 105.771333 
L 234.87005 106.628667 
" clip-path="url(#p4721cd210e)" style="fill: #005f73"/>
    <path d="M 260.31992 106.68778 
L 248.450613 100.09372 
L 248.125426 101.828048 
L 244.331584 97.167041 
L 250.293336 97.92581 
L 248.99259 99.118161 
L 260.861898 105.71222 
L 260.31992 106.68778 
" clip-path="url(#p4721cd210e)" style="fill: #005f73"/>
    <path d="M 285.73993 106.715077 
L 273.206392 101.492769 
L 273.077622 103.252615 
L 268.785315 99.046154 
L 274.794545 99.132 
L 273.635622 100.462615 
L 286.169161 105.684923 
L 285.73993 106.715077 
" clip-path="url(#p4721cd210e)" style="fill: #005f73"/>
    <path d="M 311.141727 106.729365 
L 298.260505 102.435625 
L 298.260505 104.200176 
L 293.672672 100.318164 
L 299.672146 99.965253 
L 298.613415 101.376894 
L 311.494637 105.670635 
L 311.141727 106.729365 
" clip-path="url(#p4721cd210e)" style="fill: #005f73"/>
    <path d="M 57.505363 80.470635 
L 70.386585 76.176894 
L 69.327854 74.765253 
L 75.327328 75.118164 
L 70.739495 79.000176 
L 70.739495 77.235625 
L 57.858273 81.529365 
L 57.505363 80.470635 
" clip-path="url(#p4721cd210e)" style="fill: #005f73"/>
    <path d="M 82.830839 80.484923 
L 95.364378 75.262615 
L 94.205455 73.932 
L 100.214685 73.846154 
L 95.922378 78.052615 
L 95.793608 76.292769 
L 83.26007 81.515077 
L 82.830839 80.484923 
" clip-path="url(#p4721cd210e)" style="fill: #005f73"/>
    <path d="M 108.138102 80.51222 
L 120.00741 73.918161 
L 118.706664 72.72581 
L 124.668416 71.967041 
L 120.874574 76.628048 
L 120.549387 74.89372 
L 108.68008 81.48778 
L 108.138102 80.51222 
" clip-path="url(#p4721cd210e)" style="fill: #005f73"/>
    <path d="M 133.415504 80.571333 
L 143.846413 71.878909 
L 142.346077 70.950129 
L 148.061643 69.09257 
L 145.20386 74.379469 
L 144.560859 72.736244 
L 134.12995 81.428667 
L 133.415504 80.571333 
" clip-path="url(#p4721cd210e)" style="fill: #005f73"/>
    <path d="M 158.657883 80.712911 
L 165.643706 69.069872 
L 163.921174 68.687088 
L 168.705985 65.050632 
L 167.749023 70.983797 
L 166.600668 69.64405 
L 159.614845 81.287089 
L 158.657883 80.712911 
" clip-path="url(#p4721cd210e)" style="fill: #005f73"/>
    <path d="M 183.942 81 
L 183.942 67.422 
L 182.268 67.98 
L 184.5 62.4 
L 186.732 67.98 
L 185.058 67.422 
L 185.058 81 
L 183.942 81 
" clip-path="url(#p4721cd210e)" style="fill: #005f73"/>
    <path d="M 209.385155 81.287089 
L 202.399332 69.64405 
L 201.250977 70.983797 
L 200.294015 65.050632 
L 205.078826 68.687088 
L 203.356294 69.069872 
L 210.342117 80.712911 
L 209.385155 81.287089 
" clip-path="url(#p4721cd210e)" style="fill: #005f73"/>
    <path d="M 234.87005 81.428667 
L 224.439141 72.736244 
L 223.79614 74.379469 
L 220.938357 69.09257 
L 226.653923 70.950129 
L 225.153587 71.878909 
L 235.584496 80.571333 
L 234.87005 81.428667 
" clip-path="url(#p4721cd210e)" style="fill: #005f73"/>
    <path d="M 260.31992 81.48778 
L 248.450613 74.89372 
L 248.125426 76.628048 
L 244.331584 71.967041 
L 250.293336 72.72581 
L 248.99259 73.918161 
L 260.861898 80.51222 
L 260.31992 81.48778 
" clip-path="url(#p4721cd210e)" style="fill: #005f73"/>
    <path d="M 285.73993 81.515077 
L 273.206392 76.292769 
L 273.077622 78.052615 
L 268.785315 73.846154 
L 274.794545 73.932 
L 273.635622 75.262615 
L 286.169161 80.484923 
L 285.73993 81.515077 
" clip-path="url(#p4721cd210e)" style="fill: #005f73"/>
    <path d="M 311.141727 81.529365 
L 298.260505 77.235625 
L 298.260505 79.000176 
L 293.672672 75.118164 
L 299.672146 74.765253 
L 298.613415 76.176894 
L 311.494637 80.470635 
L 311.141727 81.529365 
" clip-path="url(#p4721cd210e)" style="fill: #005f73"/>
    <path d="M 57.505363 55.270635 
L 70.386585 50.976894 
L 69.327854 49.565253 
L 75.327328 49.918164 
L 70.739495 53.800176 
L 70.739495 52.035625 
L 57.858273 56.329365 
L 57.505363 55.270635 
" clip-path="url(#p4721cd210e)" style="fill: #005f73"/>
    <path d="M 82.830839 55.284923 
L 95.364378 50.062615 
L 94.205455 48.732 
L 100.214685 48.646154 
L 95.922378 52.852615 
L 95.793608 51.092769 
L 83.26007 56.315077 
L 82.830839 55.284923 
" clip-path="url(#p4721cd210e)" style="fill: #005f73"/>
    <path d="M 108.138102 55.31222 
L 120.00741 48.718161 
L 118.706664 47.52581 
L 124.668416 46.767041 
L 120.874574 51.428048 
L 120.549387 49.69372 
L 108.68008 56.28778 
L 108.138102 55.31222 
" clip-path="url(#p4721cd210e)" style="fill: #005f73"/>
    <path d="M 133.415504 55.371333 
L 143.846413 46.678909 
L 142.346077 45.750129 
L 148.061643 43.89257 
L 145.20386 49.179469 
L 144.560859 47.536244 
L 134.12995 56.228667 
L 133.415504 55.371333 
" clip-path="url(#p4721cd210e)" style="fill: #005f73"/>
    <path d="M 158.657883 55.512911 
L 165.643706 43.869872 
L 163.921174 43.487088 
L 168.705985 39.850632 
L 167.749023 45.783797 
L 166.600668 44.44405 
L 159.614845 56.087089 
L 158.657883 55.512911 
" clip-path="url(#p4721cd210e)" style="fill: #005f73"/>
    <path d="M 183.942 55.8 
L 183.942 42.222 
L 182.268 42.78 
L 184.5 37.2 
L 186.732 42.78 
L 185.058 42.222 
L 185.058 55.8 
L 183.942 55.8 
" clip-path="url(#p4721cd210e)" style="fill: #005f73"/>
    <path d="M 209.385155 56.087089 
L 202.399332 44.44405 
L 201.250977 45.783797 
L 200.294015 39.850632 
L 205.078826 43.487088 
L 203.356294 43.869872 
L 210.342117 55.512911 
L 209.385155 56.087089 
" clip-path="url(#p4721cd210e)" style="fill: #005f73"/>
    <path d="M 234.87005 56.228667 
L 224.439141 47.536244 
L 223.79614 49.179469 
L 220.938357 43.89257 
L 226.653923 45.750129 
L 225.153587 46.678909 
L 235.584496 55.371333 
L 234.87005 56.228667 
" clip-path="url(#p4721cd210e)" style="fill: #005f73"/>
    <path d="M 260.31992 56.28778 
L 248.450613 49.69372 
L 248.125426 51.428048 
L 244.331584 46.767041 
L 250.293336 47.52581 
L 248.99259 48.718161 
L 260.861898 55.31222 
L 260.31992 56.28778 
" clip-path="url(#p4721cd210e)" style="fill: #005f73"/>
    <path d="M 285.73993 56.315077 
L 273.206392 51.092769 
L 273.077622 52.852615 
L 268.785315 48.646154 
L 274.794545 48.732 
L 273.635622 50.062615 
L 286.169161 55.284923 
L 285.73993 56.315077 
" clip-path="url(#p4721cd210e)" style="fill: #005f73"/>
    <path d="M 311.141727 56.329365 
L 298.260505 52.035625 
L 298.260505 53.800176 
L 293.672672 49.918164 
L 299.672146 49.565253 
L 298.613415 50.976894 
L 311.494637 55.270635 
L 311.141727 56.329365 
" clip-path="url(#p4721cd210e)" style="fill: #005f73"/>
   </g>
   <g id="matplotlib.axis_1">
    <g id="xtick_1">
     <g id="line2d_1">
      <defs>
       <path id="m0c2c687a4a" d="M 0 0 
L 0 3.5 
" style="stroke: #000000; stroke-width: 0.8"/>
      </defs>
      <g>
       <use xlink:href="#m0c2c687a4a" x="57.681818" y="320.4" style="stroke: #000000; stroke-width: 0.8"/>
      </g>
     </g>
     <g id="text_1">
      <!-- −100 -->
      <g transform="translate(43.948224 334.998438)scale(0.1 -0.1)">
       <defs>
        <path id="DejaVuSans-2212" d="M 678 2272 
L 4684 2272 
L 4684 1741 
L 678 1741 
L 678 2272 
z
" transform="scale(0.015625)"/>
        <path id="DejaVuSans-31" d="M 794 531 
L 1825 531 
L 1825 4091 
L 703 3866 
L 703 4441 
L 1819 4666 
L 2450 4666 
L 2450 531 
L 3481 531 
L 3481 0 
L 794 0 
L 794 531 
z
" transform="scale(0.015625)"/>
        <path id="DejaVuSans-30" d="M 2034 4250 
Q 1547 4250 1301 3770 
Q 1056 3291 1056 2328 
Q 1056 1369 1301 889 
Q 1547 409 2034 409 
Q 2525 409 2770 889 
Q 3016 1369 3016 2328 
Q 3016 3291 2770 3770 
Q 2525 4250 2034 4250 
z
M 2034 4750 
Q 2819 4750 3233 4129 
Q 3647 3509 3647 2328 
Q 3647 1150 3233 529 
Q 2819 -91 2034 -91 
Q 1250 -91 836 529 
Q 422 1150 422 2328 
Q 422 3509 836 4129 
Q 1250 4750 2034 4750 
z
" transform="scale(0.015625)"/>
       </defs>
       <use xlink:href="#DejaVuSans-2212"/>
       <use xlink:href="#DejaVuSans-31" x="83.789062"/>
       <use xlink:href="#DejaVuSans-30" x="147.412109"/>
       <use xlink:href="#DejaVuSans-30" x="211.035156"/>
      </g>
     </g>
    </g>
    <g id="xtick_2">
     <g id="line2d_2">
      <g>
       <use xlink:href="#m0c2c687a4a" x="89.386364" y="320.4" style="stroke: #000000; stroke-width: 0.8"/>
      </g>
     </g>
     <g id="text_2">
      <!-- −75 -->
      <g transform="translate(78.83402 334.998438)scale(0.1 -0.1)">
       <defs>
        <path id="DejaVuSans-37" d="M 525 4666 
L 3525 4666 
L 3525 4397 
L 1831 0 
L 1172 0 
L 2766 4134 
L 525 4134 
L 525 4666 
z
" transform="scale(0.015625)"/>
        <path id="DejaVuSans-35" d="M 691 4666 
L 3169 4666 
L 3169 4134 
L 1269 4134 
L 1269 2991 
Q 1406 3038 1543 3061 
Q 1681 3084 1819 3084 
Q 2600 3084 3056 2656 
Q 3513 2228 3513 1497 
Q 3513 744 3044 326 
Q 2575 -91 1722 -91 
Q 1428 -91 1123 -41 
Q 819 9 494 109 
L 494 744 
Q 775 591 1075 516 
Q 1375 441 1709 441 
Q 2250 441 2565 725 
Q 2881 1009 2881 1497 
Q 2881 1984 2565 2268 
Q 2250 2553 1709 2553 
Q 1456 2553 1204 2497 
Q 953 2441 691 2322 
L 691 4666 
z
" transform="scale(0.015625)"/>
       </defs>
       <use xlink:href="#DejaVuSans-2212"/>
       <use xlink:href="#DejaVuSans-37" x="83.789062"/>
       <use xlink:href="#DejaVuSans-35" x="147.412109"/>
      </g>
     </g>
    </g>
    <g id="xtick_3">
     <g id="line2d_3">
      <g>
       <use xlink:href="#m0c2c687a4a" x="121.090909" y="320.4" style="stroke: #000000; stroke-width: 0.8"/>
      </g>
     </g>
     <g id="text_3">
      <!-- −50 -->
      <g transform="translate(110.538565 334.998438)scale(0.1 -0.1)">
       <use xlink:href="#DejaVuSans-2212"/>
       <use xlink:href="#DejaVuSans-35" x="83.789062"/>
       <use xlink:href="#DejaVuSans-30" x="147.412109"/>
      </g>
     </g>
    </g>
    <g id="xtick_4">
     <g id="line2d_4">
      <g>
       <use xlink:href="#m0c2c687a4a" x="152.795455" y="320.4" style="stroke: #000000; stroke-width: 0.8"/>
      </g>
     </g>
     <g id="text_4">
      <!-- −25 -->
      <g transform="translate(142.243111 334.998438)scale(0.1 -0.1)">
       <defs>
        <path id="DejaVuSans-32" d="M 1228 531 
L 3431 531 
L 3431 0 
L 469 0 
L 469 531 
Q 828 903 1448 1529 
Q 2069 2156 2228 2338 
Q 2531 2678 2651 2914 
Q 2772 3150 2772 3378 
Q 2772 3750 2511 3984 
Q 2250 4219 1831 4219 
Q 1534 4219 1204 4116 
Q 875 4013 500 3803 
L 500 4441 
Q 881 4594 1212 4672 
Q 1544 4750 1819 4750 
Q 2544 4750 2975 4387 
Q 3406 4025 3406 3419 
Q 3406 3131 3298 2873 
Q 3191 2616 2906 2266 
Q 2828 2175 2409 1742 
Q 1991 1309 1228 531 
z
" transform="scale(0.015625)"/>
       </defs>
       <use xlink:href="#DejaVuSans-2212"/>
       <use xlink:href="#DejaVuSans-32" x="83.789062"/>
       <use xlink:href="#DejaVuSans-35" x="147.412109"/>
      </g>
     </g>
    </g>
    <g id="xtick_5">
     <g id="line2d_5">
      <g>
       <use xlink:href="#m0c2c687a4a" x="184.5" y="320.4" style="stroke: #000000; stroke-width: 0.8"/>
      </g>
     </g>
     <g id="text_5">
      <!-- 0 -->
      <g transform="translate(181.31875 334.998438)scale(0.1 -0.1)">
       <use xlink:href="#DejaVuSans-30"/>
      </g>
     </g>
    </g>
    <g id="xtick_6">
     <g id="line2d_6">
      <g>
       <use xlink:href="#m0c2c687a4a" x="216.204545" y="320.4" style="stroke: #000000; stroke-width: 0.8"/>
      </g>
     </g>
     <g id="text_6">
      <!-- 25 -->
      <g transform="translate(209.842045 334.998438)scale(0.1 -0.1)">
       <use xlink:href="#DejaVuSans-32"/>
       <use xlink:href="#DejaVuSans-35" x="63.623047"/>
      </g>
     </g>
    </g>
    <g id="xtick_7">
     <g id="line2d_7">
      <g>
       <use xlink:href="#m0c2c687a4a" x="247.909091" y="320.4" style="stroke: #000000; stroke-width: 0.8"/>
      </g>
     </g>
     <g id="text_7">
      <!-- 50 -->
      <g transform="translate(241.546591 334.998438)scale(0.1 -0.1)">
       <use xlink:href="#DejaVuSans-35"/>
       <use xlink:href="#DejaVuSans-30" x="63.623047"/>
      </g>
     </g>
    </g>
    <g id="xtick_8">
     <g id="line2d_8">
      <g>
       <use xlink:href="#m0c2c687a4a" x="279.613636" y="320.4" style="stroke: #000000; stroke-width: 0.8"/>
      </g>
     </g>
     <g id="text_8">
      <!-- 75 -->
      <g transform="translate(273.251136 334.998438)scale(0.1 -0.1)">
       <use xlink:href="#DejaVuSans-37"/>
       <use xlink:href="#DejaVuSans-35" x="63.623047"/>
      </g>
     </g>
    </g>
    <g id="xtick_9">
     <g id="line2d_9">
      <g>
       <use xlink:href="#m0c2c687a4a" x="311.318182" y="320.4" style="stroke: #000000; stroke-width: 0.8"/>
      </g>
     </g>
     <g id="text_9">
      <!-- 100 -->
      <g transform="translate(301.774432 334.998438)scale(0.1 -0.1)">
       <use xlink:href="#DejaVuSans-31"/>
       <use xlink:href="#DejaVuSans-30" x="63.623047"/>
       <use xlink:href="#DejaVuSans-30" x="127.246094"/>
      </g>
     </g>
    </g>
   </g>
   <g id="matplotlib.axis_2">
    <g id="ytick_1">
     <g id="line2d_10">
      <defs>
       <path id="mb2c4825629" d="M 0 0 
L -3.5 0 
" style="stroke: #000000; stroke-width: 0.8"/>
      </defs>
      <g>
       <use xlink:href="#mb2c4825629" x="45" y="307.8" style="stroke: #000000; stroke-width: 0.8"/>
      </g>
     </g>
     <g id="text_10">
      <!-- 0 -->
      <g transform="translate(31.6375 311.599219)scale(0.1 -0.1)">
       <use xlink:href="#DejaVuSans-30"/>
      </g>
     </g>
    </g>
    <g id="ytick_2">
     <g id="line2d_11">
      <g>
       <use xlink:href="#mb2c4825629" x="45" y="276.3" style="stroke: #000000; stroke-width: 0.8"/>
      </g>
     </g>
     <g id="text_11">
      <!-- 25 -->
      <g transform="translate(25.275 280.099219)scale(0.1 -0.1)">
       <use xlink:href="#DejaVuSans-32"/>
       <use xlink:href="#DejaVuSans-35" x="63.623047"/>
      </g>
     </g>
    </g>
    <g id="ytick_3">
     <g id="line2d_12">
      <g>
       <use xlink:href="#mb2c4825629" x="45" y="244.8" style="stroke: #000000; stroke-width: 0.8"/>
      </g>
     </g>
     <g id="text_12">
      <!-- 50 -->
      <g transform="translate(25.275 248.599219)scale(0.1 -0.1)">
       <use xlink:href="#DejaVuSans-35"/>
       <use xlink:href="#DejaVuSans-30" x="63.623047"/>
      </g>
     </g>
    </g>
    <g id="ytick_4">
     <g id="line2d_13">
      <g>
       <use xlink:href="#mb2c4825629" x="45" y="213.3" style="stroke: #000000; stroke-width: 0.8"/>
      </g>
     </g>
     <g id="text_13">
      <!-- 75 -->
      <g transform="translate(25.275 217.099219)scale(0.1 -0.1)">
       <use xlink:href="#DejaVuSans-37"/>
       <use xlink:href="#DejaVuSans-35" x="63.623047"/>
      </g>
     </g>
    </g>
    <g id="ytick_5">
     <g id="line2d_14">
      <g>
       <use xlink:href="#mb2c4825629" x="45" y="181.8" style="stroke: #000000; stroke-width: 0.8"/>
      </g>
     </g>
     <g id="text_14">
      <!-- 100 -->
      <g transform="translate(18.9125 185.599219)scale(0.1 -0.1)">
       <use xlink:href="#DejaVuSans-31"/>
       <use xlink:href="#DejaVuSans-30" x="63.623047"/>
       <use xlink:href="#DejaVuSans-30" x="127.246094"/>
      </g>
     </g>
    </g>
    <g id="ytick_6">
     <g id="line2d_15">
      <g>
       <use xlink:href="#mb2c4825629" x="45" y="150.3" style="stroke: #000000; stroke-width: 0.8"/>
      </g>
     </g>
     <g id="text_15">
      <!-- 125 -->
      <g transform="translate(18.9125 154.099219)scale(0.1 -0.1)">
       <use xlink:href="#DejaVuSans-31"/>
       <use xlink:href="#DejaVuSans-32" x="63.623047"/>
       <use xlink:href="#DejaVuSans-35" x="127.246094"/>
      </g>
     </g>
    </g>
    <g id="ytick_7">
     <g id="line2d_16">
      <g>
       <use xlink:href="#mb2c4825629" x="45" y="118.8" style="stroke: #000000; stroke-width: 0.8"/>
      </g>
     </g>
     <g id="text_16">
      <!-- 150 -->
      <g transform="translate(18.9125 122.599219)scale(0.1 -0.1)">
       <use xlink:href="#DejaVuSans-31"/>
       <use xlink:href="#DejaVuSans-35" x="63.623047"/>
       <use xlink:href="#DejaVuSans-30" x="127.246094"/>
      </g>
     </g>
    </g>
    <g id="ytick_8">
     <g id="line2d_17">
      <g>
       <use xlink:href="#mb2c4825629" x="45" y="87.3" style="stroke: #000000; stroke-width: 0.8"/>
      </g>
     </g>
     <g id="text_17">
      <!-- 175 -->
      <g transform="translate(18.9125 91.099219)scale(0.1 -0.1)">
       <use xlink:href="#DejaVuSans-31"/>
       <use xlink:href="#DejaVuSans-37" x="63.623047"/>
       <use xlink:href="#DejaVuSans-35" x="127.246094"/>
      </g>
     </g>
    </g>
    <g id="ytick_9">
     <g id="line2d_18">
      <g>
       <use xlink:href="#mb2c4825629" x="45" y="55.8" style="stroke: #000000; stroke-width: 0.8"/>
      </g>
     </g>
     <g id="text_18">
      <!-- 200 -->
      <g transform="translate(18.9125 59.599219)scale(0.1 -0.1)">
       <use xlink:href="#DejaVuSans-32"/>
       <use xlink:href="#DejaVuSans-30" x="63.623047"/>
       <use xlink:href="#DejaVuSans-30" x="127.246094"/>
      </g>
     </g>
    </g>
   </g>
   <g id="line2d_19">
    <path d="M 184.5 320.4 
L 184.5 43.2 
" clip-path="url(#p4721cd210e)" style="fill: none; stroke: #9b2226; stroke-width: 2; stroke-linecap: square"/>
   </g>
   <g id="patch_3">
    <path d="M 45 320.4 
L 45 43.2 
" style="fill: none; stroke: #000000; stroke-width: 0.8; stroke-linejoin: miter; stroke-linecap: square"/>
   </g>
   <g id="patch_4">
    <path d="M 324 320.4 
L 324 43.2 
" style="fill: none; stroke: #000000; stroke-width: 0.8; stroke-linejoin: miter; stroke-linecap: square"/>
   </g>
   <g id="patch_5">
    <path d="M 45 320.4 
L 324 320.4 
" style="fill: none; stroke: #000000; stroke-width: 0.8; stroke-linejoin: miter; stroke-linecap: square"/>
   </g>
   <g id="patch_6">
    <path d="M 45 43.2 
L 324 43.2 
" style="fill: none; stroke: #000000; stroke-width: 0.8; stroke-linejoin: miter; stroke-linecap: square"/>
   </g>
  </g>
 </g>
 <defs>
  <clipPath id="p4721cd210e">
   <rect x="45" y="43.2" width="279" height="277.2"/>
  </clipPath>
 </defs>
</svg>
